<?xml version="1.0" encoding="UTF-8"?><svg xmlns="http://www.w3.org/2000/svg" viewBox="0 0 159.2 49.24"><defs><style>.d{fill:#fff;}.e{fill:#54c8f3;}.f{fill:#0c3459;}.g{fill:#fff;}</style></defs><g id="a"/><g id="b"><g id="c"><g><circle class="e" cx="23.01" cy="15.35" r="15.35"/><g><path class="d" d="M19.18,20s0-.07-.03-.13c.01,.03,.03,.07,.03,.13h0Zm0,.02s0,.04,0,.06c0-.12,0-.16-.03-.22h-.02s-.09-.03-.13-.04c-.02-.19-.94-1.39-1.53-1.58l-.02,.04c.22,.3,.38,.54,.71,1.07,.23,.37,.49,.79,.68,1,.09,.1,.26,.3,.34-.13,.01-.06,.02-.2,.02-.2h0Z"/><path class="d" d="M21.54,4.06v0h0Z"/><path class="d" d="M25.47,21.14s-.02-.01-.03-.02c.01,0,.02,.01,.03,.02h0Z"/><path class="d" d="M26.92,24.57c-.16,.62-.84,1.16-1.29,1.51-.07-.05-.14-.09-.21-.14-.61,.34-.83-.28-.92-.54q-.05,.05-.1,.07c.02-.1,.04-.19,.06-.29-.13,.12-.25,.23-.38,.35-.08-.18-.16-.38-.36-.42-.11-.02-1.15,.03-1.25,.08-.1,.05-.15,.17-.27,.2-.15,.04-.3,0-.45,.03-.13,.03-.24,.14-.37,.16-.1,.02-.27-.03-.27-.03-.09-.05-.11-.09-.13-.37-.05-.52-.17-.7-.45-1.11l.03-.02c.06,.03,.12,.06,.17,.09h.03c-.18-.43-.2-.47-.04-.63,.09-.1,.29-.13,.41-.17,.44-.15,.54-.23,.9-.54-.09-.1-.06-.14,.1-.21q.04,.09,.09,.12c.03-.16,.04-.2,.55-.63,.19,.1,.23,.16,.21,.3,.03-.04,.07-.08,.1-.12l.28,.12c-.08-.1-.15-.21-.08-.33,.04-.07,.04-.07,.15-.18,.08-.09,.21-.03,.3-.11l-.02-.11q.49,.14,.71,.12-.2,.48-.2,.48s.65,.58,.85,.41c.09-.07,.14-.35,.18-.63,.05-.3,.07-.35,.14-.51h.05q.15,.54,.21,.58s.04-.01,.09-.05t.18,.55q.09,.28,.23,.33c.07,.03,.18,.11,.23,.19,.01,.02,.02,.04,.03,.06,.02,.04,.02,.1,.04,.14,.04,.08,.21,.12,.15,.24,.09,.19,.26,.32,.33,.52,.03,.1,.06,.29,0,.49h0Z"/><path class="d" d="M26.69,21.33h.03q-.14-.08-.64-.59c.06-.02,.12-.05,.18-.07v-.04c-.22-.08-.35-.13-.68-.36-.2-.14-.38-.27-.57-.3-.31-.06-.57,.05-.92,.26q-.23-.56-.36-.55c-.08,.01-.12,.03-.31,.1,.04,.03,.09,.05,.13,.09,.03,.03,.01,.08,.05,.11,.03,.02,.04,.03,.12,.01,.08-.02,.14-.02,.2,.03q-.05,.05-.27,.09c.04,.09,.09,.17,.13,.26,.03-.04,.06-.07,.08-.11,.08,.03,.2,.08,.28,.11,.15,.06,.32,.06,.45,.16,.06,.05,.06,.07,.23,.52,.04,0,.08-.02,.12-.03,.07,.09,.1,.12,.15,.15t.07,.04l.04,.02h.16s.02,0,.06-.03c.03-.02,.04-.03,.06-.04-.02,.02-.04,.03-.05,.04,.02-.01,.03-.02,.05-.03v-.02c-.05-.03-.09-.06-.13-.08q.16-.02,.18-.12c.09-.05,.29-.08,.66,.26,.14,.13,.29,.26,.52,.14h0Z"/><path class="d" d="M21.3,19.29h-.17c-.14,.7-.3,.86-.45,.92-.11-.07-.22-.14-.33-.2q-.12,.09-.15,.09c-.07,0-.09-.07-.13-.1-.17,.03-.19-.04-.21-.09,0-.01,0-.03,0-.04,0-.04,0-.09,0-.13,0-.04-.04-.08-.06-.11-.17-.23-.16-.33-.03-.58,.08,.04,.17,.07,.25,.11,0,0,.83-.86,.96-1.02,.12,.11,.25,.23,.37,.34q-.24,.27-.24,.39c0,.24,.14,.34,.25,.43h-.03Z"/><path class="d" d="M24.73,11.6c0,.29-.06,.76-.11,.9-.11,.03-.19,.11-.3,.13-.08,.02-.21,0-.28-.01,.01,.03,.03,.07,.04,.1-.04,.05-.09,.11-.13,.16q-.11-.04-.07-.21c-.16,.01-.26,.02-.38,.08-.12,.06-.13,.06-.25,.07l-.02-.04c.44-.4,.63-.31,.68-.27q.05-.06,.21-.43v.17c.21-.11,.44-.42,.34-.7q.06-.1,.07-.2c.05,0,.1,0,.15,0,.02,.05,.04,.09,.05,.25h0Z"/><path class="d" d="M22.35,19.24c-.06,.21-.14,.2-.77,.12q-.1,.14,.05,.36c.12-.04,.24-.07,.35-.11l.02,.05c-.07,.06-.14,.11-.21,.17q.1,.34,.23,.45c-.07,.03-.14,.07-.21,.1-.05-.13-.11-.26-.16-.39q-.11,.05-.07,.52c-.07,0-.11,0-.13-.05-.03-.07-.1-.46-.1-.47,0,0,.11-.52,.25-.69,.09-.11,.19-.07,.28-.04,.19,.08,.3,.09,.49-.1,0,.02,0,.05-.01,.07h0Z"/><path class="d" d="M25.02,9.66s-.07-.05-.11-.08c-.14,.22-.12,.35,.1,.61-.01,0-.03,.01-.04,.02l-.1-.1c-.03,.05-.05,.1-.08,.16,0-.01-.2-1.4-.12-1.74,.12,.38,.24,.77,.37,1.15,0,0,0,0,0,0Z"/><path class="d" d="M23.97,4.08c-.05,.17-.51,.2-.6,.08-.04-.06-.02-.2,.11-.18,.05,0,.11,.04,.14,.07,.02-.03,.04-.07,.06-.1v.03c.1,.03,.19,.06,.29,.08v.02h0Z"/><path class="d" d="M22.2,16.85s-.06,.08-.09,.12c-.17-.06-.33-.13-.5-.19,.01-.04,.03-.08,.04-.11q-.17-.12-.17-.13s0-.03,.02-.09c.05-.19,.08-.33,.12-.57,.09,.03,.17,.05,.26,.08,.05,.26,.02,.32-.06,.39-.07,.07-.09,.13-.02,.38,.14,.04,.28,.07,.43,.11v.02h-.01Z"/><path class="d" d="M25.18,10.88c-.05,.04-.1,.07-.16,.11-.04,.03-.07,.06-.11,.08-.02,0-.05,0-.07,0h-.11s-.09-.01-.13-.01t-.09,.02s.04,.07,.07,.11c-.03,.01-.05,.03-.08,.04-.03-.06-.05-.11-.08-.17,.06-.07,.13-.13,.18-.21,.04-.06,.06-.1,.06-.13,.04-.12-.03-.25-.06-.31,.13,.08,.21,.22,.35,.29,.03,.02,.09,.03,.18-.01,.02,.05,.05,.1,.07,.16l-.04,.03h0Z"/><path class="d" d="M20.59,21.07c-.39-.1-.79-.16-1.17-.28t-.25-.16c0-.09,.03-.12,.1-.12,.06,0,.1,.02,.24,.08,.24,.11,.4,.17,.51,.06,.02,.04,.03,.05,.09,.05,.13,.02,.13,.04,.09,.16q.42,.04,.39,.21h0Z"/><path class="d" d="M20.82,3.21c-.03,.06-.05,.11-.08,.17h-.02c-.26-.05-.26-.07-.25-.1,.01-.05,0-.05-.07-.04,.12-.09,.2-.1,.24-.1,.04,0,.05,.02,.05,.07,.1-.05,.11-.05,.14,0v.02h-.01Z"/><path class="d" d="M22.53,18.1q-.11,.05-.12,.07s0,.01,.03,.19q-.21-.09-.29-.36c-.1,.03-.2,.06-.29,.09-.03-.1-.01-.12,.08-.16,.08-.03,.09-.05,.09-.1h.04s.03,.05,.04,.07c.1-.04,.19-.08,.29-.12,0-.05,0-.1-.01-.15,.11,.03,.16,.14,.18,.46l-.03,.02h0Z"/><path class="d" d="M21.11,3.45c-.14,.1-.39,.11-.45,.09,.03-.02,.06-.04,.13-.11,.1-.11,.13-.13,.2-.14,0,0,.02,0,.03,0l-.04,.05c.05,.03,.11,.06,.16,.08l-.02,.02h0Z"/><path class="d" d="M25.86,26.38c-.03,.09-.07,.18-.1,.26h-.02c-.18,.11-.19,.11-.22,.1-.05-.03-.17-.25-.15-.3,0-.03,.05-.03,.13-.03,.17,0,.25-.01,.36-.07l.02,.02v.02h0Z"/><path class="d" d="M20.76,3.04c-.2,.16-.29,.05-.32,.02h.01l.05-.06s.02-.03,.04-.04c.03-.02,.08-.04,.14-.04,.05,0,.07,.04,.09,.11h-.02Z"/><path class="d" d="M15.42,17.72c-.02,.15-.19,.17-.25,.09-.05-.07-.04-.42-.04-.43t.09-.22h.04q.16,.51,.15,.55h0Z"/><path class="d" d="M22.52,4.62s0,.11-.06,.11t-.25-.1l.07-.02s-.01-.06-.01-.09c0-.02,.01-.03,.02-.04,.08,.03,.16,.06,.24,.09,0,.01,0,.03,0,.04h0Z"/><path class="d" d="M23.31,13.05c0,.15-.07,.3-.09,.36-.03-.01-.11-.05-.12-.11-.01-.1,.06-.17,.06-.26-.05,.01-.1,.02-.15,.04,.04-.08,.11-.19,.19-.2,.09,0,.1,.13,.1,.18h0Z"/><path class="d" d="M21.78,14.75c0,.08-.07,.22-.16,.4-.19-.16-.02-.43,.12-.56,0,.03,.02,.07,.03,.1,0,.01,0,.03,0,.06h0Z"/><path class="d" d="M20,15.65l-.17,.27c-.15-.23-.12-.35,0-.34,.05,0,.1,.02,.17,.06v.02h-.01Z"/><path class="d" d="M24.45,4.18c-.06,.03-.31,.05-.37-.14,.07,.05,.11,.06,.19,.06,.08,0,.12,.01,.19,.07h0Z"/><path class="d" d="M26.92,20.29c-.01,.13-.13,.27-.6,.25v-.08q.29-.01,.36-.05c.13-.06,.19-.15,.23-.21,0,.02,0,.05,0,.08h0Z"/><path class="d" d="M22.6,21.12c-.25,.2-.31,.25-.34,.26-.06,.03-.09,0-.08-.06,0,0,.03-.23,.3-.24,.05,0,.08,0,.14,.02l-.02,.02h0Z"/><path class="d" d="M22.97,19.32c-.04,.1-.07,.21-.1,.31h-.03c-.02-.17-.04-.35-.07-.53,.02,0,.03,0,.05,0,.05,.07,.1,.14,.16,.21h0Z"/><path class="d" d="M23.93,4.51q-.06,.03-.07,.03s-.02,0-.17-.02c.02-.06,.05-.08,.1-.08,.04,0,.07,0,.15,.03l.02,.04h-.02Z"/><path class="d" d="M23.71,12.86c-.05,.07-.07,.06-.09,.06-.03,0-.05,0-.11,.15-.03-.01-.09-.04-.09-.09,0-.01,0-.03,0-.06,.01-.04,.04-.07,.05-.11,.05,0,.1-.02,.15-.03t.09,.04l-.02,.02h0Z"/><path class="d" d="M22.72,4.67c-.05,.03-.11,.06-.16,.08l-.02-.02s.02-.09,.04-.13c0-.02,.01-.02,.02-.02,0,0,.01,0,.03,.01,.04,.02,.07,.04,.1,.06h-.01Z"/><path class="d" d="M22.34,17.52s-.08-.08-.11-.12c-.02,0-.04,.01-.05,.02,.02,.08,.03,.16,.05,.23-.15-.14-.12-.29-.02-.3,.08,0,.13,.09,.17,.15l-.03,.02h0Z"/><path class="d" d="M23.28,20.15q-.29-.02-.3-.03s-.07-.04-.09-.09c.14,.06,.34-.07,.43,.12h-.03Z"/><path class="d" d="M21.86,21.13c-.3-.06-.27-.08-.2-.08,.06,0,.13,.03,.21,.08h-.01Z"/><path class="d" d="M20.46,3.15v.03c-.14-.02-.13-.03-.12-.04l.12,.02Z"/><path class="d" d="M22.01,17.31s-.1,.1-.14,.15h-.04c.01-.08,.02-.16,.04-.23l.16,.07h-.01Z"/><path class="d" d="M22.41,17.34c-.07-.08-.13-.17-.2-.25,.06,.01,.12,.02,.18,.03q.02,.11,.06,.2l-.04,.02h0Z"/><path class="d" d="M19.28,19.96s-.09-.07-.13-.11c0-.05,0-.1-.01-.15h.03c.04,.07,.09,.15,.13,.23l-.02,.03h0Z"/><path class="d" d="M21.61,21.38c-.07-.04-.15-.08-.22-.12,.05-.03,.08-.04,.12-.04,.06,0,.09,.04,.11,.16,0,0,0,0,0,0Z"/><path class="d" d="M11.43,21.11s-.06-.05-.09-.08c0,0,.08,1.46,.08,1.56,0,.02-.01,.16-.16,.04-.15-.12-.3-.38-.35-.55-.04-.17,.03-.33,0-.5-.02-.11-.11-.19-.12-.3,0-.02,0-.04,0-.06,0-.07,.02-.17,.03-.24,0,0,0,.02,0,.02,0,0,.29,0,.38-.51h.04c.07,.23,.12,.37,.21,.63l-.02-.02h0Z"/><path class="d" d="M17.14,2.38s.02-.02,.03-.02v.02h-.03Z"/><path class="d" d="M18.26,2.62c-.17,.04-.22,.05-.24,.05,0,0-.01,0-.02,0-.01,0-.01-.02-.02-.03h.02q.25-.07,.26-.06s.03,.02,.04,.03h-.04Z"/><path class="d" d="M16.04,4.7c-.08,.05-.17,.1-.15,.02,0-.04,.09-.11,.15-.1,.02,0,.03,.03,.02,.08h-.01Z"/><path class="d" d="M18.57,2.66s-.03,0-.1-.01c-.03,0-.05-.01-.08-.02l.02-.02c.08-.02,.1-.02,.12-.02,.02,0,.03,.03,.03,.07h0Z"/><path class="d" d="M18.16,2.56s-.09,.02-.13,.02c-.02,0-.02-.02,0-.04,.06,0,.12,0,.17,0l-.03,.02h0Z"/><path class="d" d="M18.54,2.77s-.01,0-.04,0c-.03,0-.03,0-.03,0,0,0,0-.02,.01-.03,.01-.01,.02-.02,.04-.03,.02,.01,.04,.02,.05,.03l-.03,.02h0Z"/><path class="d" d="M18.41,3.56q-.09,.05-.26,.08l-.03,.03h-.02s-.28,.05-.33,.06c-.07,.02-.11,.07-.18,.1-.14-.01-.69,.36-.69,.37-.07,.06-.09,.11-.14,.36q-.19-.07-.2-.1s.02-.03,.1-.08c-.04-.03-.07-.06-.11-.08,.11-.18,.5-.32,.51-.32v-.06s.04-.02,.05-.03c.09-.06,.2-.09,.29-.15,.02,0,0-.03,.02-.04,0,0,.13-.05,.18-.07,.07-.02,.33-.08,.33-.08,.02,0,.05,0,.08,0,.03,0,.06,.01,.18,0l.03-.03h.02q.12-.04,.16-.03s.05,.02,.06,.06l-.04,.02h0Z"/><path class="d" d="M28.33,5.4c-.15-.13-.2-.17-.45-.12,.03,.04,.06,.09,.09,.13q-.89-.43-1.62-.5l-.08,.07s.09,.11,.1,.17q-.6,0-.64,.28c-.51-.15-.95-1.05-1.5-.54l.02-.11q-.11-.05-.51-.12-.06,.12-.05,.31c-.46,.06-.6-.01-.62-.03-.05,.04-.11,.11-.13,.17q-.13-.02-.35-.3l-.02,.02v.11s-.79-.56-1.19-.35v-.11q-.09-.02-.65,.14,.74-.56,.76-.63-.13-.13-.38-.11c-.07-.1-.14-.1-.2-.11v-.02l.11-.03s-.12-.06-.18-.07q-.16,.05-.21,.23s-.12-.04-.17-.04v.11c-1.1-.06-1.1,.18-1.1,.35l-.08,.06-.05-.1c-.17-.02-.2-.02-.43,.01-.07,.19-.08,.21,0,.36-.03,.09-.09,.2-.14,.28,.01-.11,0-.22,0-.33-.16-.15-.22-.12-.42-.03,.03,.05,.07,.12,.08,.18-.06-.03-.13-.1-.15-.16,.05-.06,.11-.14,.15-.2l-.02-.05c-.13,.25-.38,.4-.5,.66q.16,.09,.21,.27l-.08,.07v.1l-.06-.07,.07-.1-.04-.1-.11-.02q-.49,.44-.52,.45s-.12-.08-.17-.11l.03-.05q.19,.05,.53-.26c-.06-.39,.36-.54,.43-.87-.54-.13-.55,.56-.84,.82-.04-.05-.09-.12-.13-.18h0c0-.06,.01-.07,.03-.09h-.02l-.02,.03c-.03-.05-.09-.11-.14-.14-.15,.06-.24,.19-.37,.27l.02-.1q-.13-.05-.38,.02l.02-.1q-.14-.02-.78,.2l-.03-.12q.22-.15,.24-.19l-.11-.1q-.27,.37-.37,.47s-.12-.07-.18-.06l-.07,.02-.08,.03s-.02,.01-.22,.23l-.06-.11-.11-.02c-.02,.06-.06,.13-.1,.17-.09-.27,.18-.41,.22-.63q.44,.24,.49,.21c.19-.11,.12-.53,.11-.56-.02-.06-.05-.14-.03-.19-.04-.03-.1-.06-.13-.1l.11-.03,.05-.09s-.11,0-.15,0c.05-.04,.11-.09,.16-.13-.06,.02-.14,.04-.19,.07,0-.02,.05-.06,.1-.09-.74,.6-1.4,1.23-2,1.91h.14l.03,.1q-.09,.08-.3,.05c-.93,1.06-1.73,2.24-2.37,3.51,0,.09-.02,.2-.04,.28h.02s-.06,.12-.09,.17c-.05,.05-.06,.04-.08,.03q-.04,.42,.11,.55l.08-.07s.08,.12,.1,.18c.1,.03,.2-.02,.3,0,0,.02-.59,1.56-1.18,.63-.72,1.87-1.12,3.89-1.13,5.96,0,2.26,.47,4.35,1.31,6.15h.02c.26-.36,.12-.85,0-1.11,.27-.26,.07-2.65,.07-2.68-.25-1.43,.9-2.36,1.27-3.56q-.82-.06-.85-.17c-.27-.95-.55-1.93-.32-3.92h.02c0,.07,.01,.17,.02,.25l.1-.05c.15,3.82,.18,4.4,1.9,2.73,.08-.08,.45-.59,.46-.6q-.28-.69-.25-.9c-.13,.13-.18,.18-.34,.34q-.21-.05-.29-.11c.01-.1,.04-.23,.07-.33-.05,.05-.1,.13-.13,.19,0,0-.11-.96,.07-1.07,.28,.23,.2,.97,.68,.82q.31,.53,.85,.6c.07,0,.07-.02,.07-.03h.1q.06,.1,.14,.34l.11,.03c0,.07,.02,.16,.05,.23l.16,.06c-.06,.03-.13,.1-.15,.15,.03,.07,.08,.16,.13,.22h.12c.05-.05,.12-.13,.16-.19,.02,1.98,.25,2.63,.44,2.83,.07-.03,.15-.08,.21-.13,.1-1.41,1.29-2.42,1.96-2.27q.06-.1,.05-.34l.1,.04,.35,1.67,.03-.11,.1,.02q.07-.06,.26-.26c.19,.72,.11,1.48,.35,2.19,.23,.7,.33,.76,.67,.94-.12-.79-1.49-1.83-.48-2.34,.2,.3,.67,.4,.67,.86,.61-.38,1.01-.64,.52-1.31-.44-.6-.39-.67,.15-1.12q.13,.08,.19,.28,.06-.11,.47-.27l.08-.2c.3,.35,1.04-.33,1.37-1.27l-.1-.11v-.1l.09-.06c-.05-.06-.12-.13-.19-.18l.1-.02q-.15-.87,.26-1.12c-.28-.1-.3-.09-.44,0q-.18-.18-.27-.21s.35-.45,.57-.52l.09,.06q-.02,.12-.11,.31,.41-.18,.51-.18t.08,.4c.07,0,.16,.04,.22,.08q-.04,.53-.01,.63,.49-.17,.13-1c.14-.31,.4-.53,.59-.8,.61,.24,1.37-1.49,1.1-2.1-.03-.07-.11-.15-.16-.21-.07,.02-.15,.06-.21,.09l-.04-.09-.1,.04c-.04-.06-.12-.13-.19-.15,.91-1.24,.96-1.31,1.78-1.09l.03,.1c.05,0,.12,0,.17-.02,.07-.02,.16-.05,.22-.07l-.1-.04c.04-.56,.3-.51,.45-.47l.07,.2,.04-.03v-.02c.05-.2,.05-.22,0-.52l.11-.04,.07,.06h-.1q.09,.44,.13,.52c.05-.03,.12-.08,.17-.11,.07,0,.08,.03,.09,.06,.04-.05,.11-.12,.16-.17,.06,0,.14,.03,.2,.06,.19-.19,.3-.44,.45-.65,.07,.01,.16,.03,.22,.05-.02-.16-.17-.4-.49-.43l.02-.1c.07,0,.16,0,.22,0l.06-.1c-.03-.05-.06-.13-.06-.19q.08,.07,.71,.25,.06-.34,.07-.36h0Z"/><path class="d" d="M26.85,7.95c0,.08-.06,.15-.05,.24,0,.06,.07,.13,.11,.18t-.13,.07s-.04,.08-.01,.15c.01,.03,0,.05,0,.05-.01,.03-.05,.03-.06,.06-.05,.08,0,.16-.02,.25t-.11,.17l-.05-.02q-.35-.99-.36-1.03s0-.05,0-.07c.03-.04,.04-.09,.04-.26,.09-.08,.19-.18,.26-.35v-.05s.07-.06,.1-.1c.04,.05,.08,.11,.09,.14,0,.01,.01,.03,.02,.04,.03,.09-.03,.19,0,.28,.03,.1,.17,.13,.17,.25h0Z"/><path class="d" d="M29.92,25.3s-.02,.03-.03,.04c-.06,.06-.14,.07-.19,.13-.03,.03-.05,.07-.08,.1-.16,.21-.19,.23-.21,.23h-.01c-.01-.07,0-.14-.03-.21-.01-.03-.05-.05-.07-.07,.17-.2,.2-.24,.2-.28,0-.02,0-.04-.02-.06-.06-.11-.08-.21-.1-.43,.14,.06,.17,.12,.16,.27,0,.06,0,.1,.12,.04,.03,.19,.06,.22,.3,.09,0,.05,0,.09-.03,.13h0Z"/><path class="d" d="M27.11,4.45c-.09,.04-.16,.07-.24,.1-.04-.1-.02-.15,.04-.17,.05,0,.12,.01,.2,.06h0Z"/><path class="d" d="M28.85,22.87c-.1-.08-.21-.17-.31-.25,.02-.02,.04-.03,.06-.05,.1,.09,.2,.17,.29,.26l-.04,.04h0Z"/><path class="d" d="M29.78,2.58s.01,.02,.1,.07c-.02,0-.02,.03-.04,.04-.01,0-.04,0-.06,0,0,0,0,0-.01-.01l-.08-.07s0,.01,0,.03c.02,.03,0,.03-.02,.03-.02,0-.03-.01-.05-.02,0,0,0-.01-.02-.03h.04c-.05-.03-.11-.06-.16-.08,.05,0,.1,.02,.14,.03l-.02-.02q-.13-.04-.16-.05s.03-.01,.05-.02c0-.01,0-.02-.01-.03,.03,0,.3,.13,.3,.14h0Z"/><path class="d" d="M29.13,2.28s-.12,0-.14,0c0,0-.02,0-.01,0h.01s-.03,.03-.08,0v-.03h-.03c-.05-.03-.11-.03-.16-.05,0,0-.03-.03-.02-.04t.1,0h.01s.08,0,.34,.11h-.02Z"/><path class="d" d="M30.49,2.99c.2,.14,.18,.14,.15,.15,.05,.04,.06,.06,.07,.07-.01,0-.02,0-.05-.01-.17-.07-.3-.09-.3-.09h-.02l-.05-.04s.01-.02,.07-.02c-.06-.05-.14-.06-.2-.1-.04-.05-.04-.06-.03-.09,0-.02,0-.03,0-.04l.03,.02s.08,.08,.12,.11c0,0,.02,0,.06,.01,.03,0,.05,0,.12,.06h0Z"/><path class="d" d="M30.96,3.46l.04,.03h-.01c.05,.04,.11,.09,.17,.13,0,.01,0,.02,.04,.06-.01,0-.05,.02-.22-.03,.21,.2,.09,.29-.02,.29-.12,0-.26-.07-.36-.12,0-.07,.06-.11,.08-.17l-.03-.03c-.08,.03-.14,.05-.24,.09q-.05-.04-.07-.13h-.14c-.17-.21-.24-.3-.22-.34,.03,0,.08,.02,.17,.1-.03-.04-.08-.1,0-.09,.07,0,.1,.07,.16,.1q-.03-.09-.14-.14c0-.05,.13,.02,.14,.03q.18,.1,.23,.11t-.15-.1c-.06-.03-.19-.13-.21-.15,.02,0,.43,.15,.5,.26,.02,.02,.18,.05,.18,.05,.02,0,.03,0,.03,.01l.03,.02s.05,.01,.05,.02h0Z"/><path class="d" d="M34.13,5.15c.27,.31,.47,.68,.75,.99-.13-.18-.27-.35-.39-.54,.13,.13,.23,.28,.34,.42,0,0,.15,.21,.15,.21,.06,.08,.12,.17,.18,.26-.08-.12-.17-.24-.25-.35q.55,.81,.99,1.61c-.09-.14-.11-.17-.2-.32,.39,.68,.87,1.52,1.26,2.65q-.27-.56-.31-.64h-.06c-.08,.1-.04,.15,.04,.27v.05c-.34,.09,.49,1.86,.56,1.96l.06-.03c.06-.25-.11-.47-.1-.71,.04,.06,.08,.12,.28,1l.03-.1c.19,.29,.15,.64,.24,.95q0-.05-.02-.16v.03l.03,.15v-.09c0,.12,.02,.23,.04,.35,0-.02-.39-.92-.39-.93-.04,.04-.05,.09-.07,.13q-.06,0-.25-.13v-.05c-.15-.13-.16-.16-.21-.33-.12-.41-.91-1.52-1.09-1.53,.24,.45,.55,.86,.8,1.3-.04-.03-.1-.05-.13-.09-.19-.24-.3-.53-.5-.77-.5-.61-1.09-1.14-1.51-1.82-.47-.77-.51-.84-.74-1.12,.03-.02,.06-.03,.09-.05,.04,.05,.08,.1,.11,.16-.13-.3-.24-.35-.77-.58,0-.03,0-.07-.02-.1-.09,0-.15-.08-.23-.11l-.02-.03s0-.07-.02-.1l-.03,.04q-.05-.04-.13-.14v.05c-.09-.11-.13-.26-.24-.36,.06,.1,.07,.12,.09,.18-.36-.08-.54-.41-.83-.6l.07,.08h-.06v.06c-.18-.03-.26-.09-.37-.17-.24,.09-.47-.04-.7-.05-.01,.14,.07,.28,.02,.42-.18-.16-.17-.21-.13-.35l-.03-.04h-.07c-.05,.16,.02,.33,0,.49l.12,.05c-.08,.59-.09,.61-.2,.77l.02,.03q-.08,0-.17,.16c-.04-.16-.02-.19,.04-.24h.03c.14-.39,.07-.51-.04-.65l-.03,.05s-.07-.04-.1-.06v.06h0c-.07,.03-.13,.06-.2,.09q-.19-.22-.26-.35,.01,.1,0,.16c-.07,.01-.08,.01-.27-.1l.12-.03-.02-.02c-.09-.03-.18-.06-.27-.09-.01-.16-.02-.19-.03-.37,.03,.01,.07,.02,.1,.02,.03-.09,.03-.09,.09-.11q-.03-.09-.2-.29c-.25,.25-.29,.22-.57,0,.05-.1,.07-.13,.12-.25,0,.03,0,.08,0,.11,.06,.03,.08,.03,.2-.05v-.06s.06-.05,.1-.07l-.03-.04c-.6-.01-.65-.28-.65-.28q.09-.03,.09-.41l.1,.06s-.03-.07-.05-.1c.03-.02,.06-.05,.08-.09l-.02-.05c.13-.03,1.43,0,1.44,0,.05,0,.13,0,.18-.03-.08-.17-.08-.18-.05-.32l.04,.02c.03,.11,.03,.14,.05,.26l.04,.03c-.02-.22-.02-.25-.13-.43q.25,.13,.33,.16c-.05-.06-.06-.08-.11-.15,.23,.11,.48-.04,.71,.05,.01,.06,.03,.08,.11,.09,.01-.03,.02-.07,.03-.1,.08,0,.12,0,.44,.17v-.02q-.26-.17-.42-.37s.02,.08,.02,.11c-.03-.03-.06-.08-.08-.12,.06-.02,.08-.02,.27,.04,.02-.03,.03-.07,.04-.1h.07s-.11-.06-.15-.11t.21,.1c-.27-.29-.69-.37-.94-.69,.25,.05,.8,.4,.83,.41q-.08-.06-.18-.15c.14,.07,.27,.17,.41,.23-.05-.05-.08-.09-.36-.31h.02q-.12-.06-.16-.09l.03-.05s.38,.15,.69,.51h-.05q.17,.17,.19,.2l-.03,.04c.63,.33,.94,.98,1.46,1.42l.04-.04q.23,0,.92,.6c-.56-.69-1.27-1.22-1.85-1.87l.05,.02v-.06c.23,.07,.36,.29,.57,.39-.05-.08-.06-.09-.4-.4,.18,.14,.19,.15,.21,.17,.19,.15,.32,.36,.54,.47,.08,.08,.16,.16,.23,.24-.06-.07-.12-.13-.18-.2l.55,.6h0Z"/><path class="d" d="M26.79,.48s-.08-.02-.11-.03c.21,.07,.43,.13,.64,.21q-.23-.07-.33-.1c.09,.04,.19,.06,.28,.09-.05-.02-.11-.04-.16-.05,.11,.04,.18,.07,.28,.11-.19-.07-.38-.15-.58-.21,.1,.06,.21,.09,.31,.14-.11-.04-.21-.1-.33-.12,.02,.01,.05,.03,.18,.09,.11,.05,.24,.06,.35,.13v.03s.04,.02,.06,.03v-.03h.04s.04,.03,.08,.05q.06,0,.08,.01l.02,.03h.07l-.02,.04s.02,.04,.37,.16c-.14-.04-.17-.04-.21-.05l.74,.4s.01,0,.01,0c.22,.06,.39,.31,.67,.35,0-.02,0-.05,0-.08,.09,.04,.13,.13,.22,.17l.02-.03s.04,0,.14,.07c-.02-.05-.07-.09-.1-.14,.09-.07,.72,.25,.97,.4t-.19-.13c.06,.03,.11,.06,.17,.09l-.05-.04c.28,.17,.81,.47,1.4,.9-.07-.05-.14-.1-.2-.15,.19,.13,.36,.27,.43,.32-1.1-.8-1.16-.85-1.89-1.27-.99-.52-1.12-.59-1.98-.94l-.27-.1c-.27-.1-.48-.17-.64-.22l.09,.03c-.07-.02-.14-.05-.22-.07l.06,.02c-.13-.03-.25-.08-.37-.11h0Z"/><path class="d" d="M31.58,2.9q.07,.06,.23,.17h-.03c.07,.05,.14,.1,.22,.15-.03-.02-.06-.04-.09-.06l.06,.06q-.2-.15-.25-.14s0,0,.09,.07h0l.03,.04c.1,.05,.16,.08,.25,.13l.04,.03,.04,.03,.04,.03,.04,.03,.04,.03,.04,.03,.04,.03,.04,.03s-.07-.03-.11-.04c.08,.07,.17,.12,.26,.18-.05,.03-.13-.01-.26-.11v.03s0,0-.14-.1c.04,.04,.09,.07,.13,.11l-.1-.06c.05,.07,.06,.08,.07,.1-.06,0-.19-.15-.19-.15,0,0,.02,0,.03,0-.05-.11-.59-.54-.73-.54t0,.04q-.2-.12-.24-.14h0c-.06,.01-.1-.03-.15-.05,.04,.04,.14,.02,.14,.1,0,0-.01,0-.02,.01t.05,.06-.15,.02s.03,.05,.04,.06c-.03,0-.1-.03-.13-.05-.03-.02-.03-.05-.06-.07-.17,.04-.62-.41-.62-.42t.18,.1q.05,.04,.29,.16c.12,.06,.13,.07,.19,.09t-.28-.15h.02c-.19-.11-.31-.18-.33-.24h0c.15-.04,.21,.14,.34,.15t-.08-.07h.02s.04,0,.11,.05c-.08-.06-.16-.09-.24-.16t-.02,.04s-.08-.03-.18-.09q.09-.05,.22,.05s.12,.01,.27,.09c-.01-.02-.03-.04-.04-.07,.05,.03,.09,.06,.14,.08v-.04s.03,0,.27,.17q.21,.11,.26,.12v-.03l.03,.02-.07-.06c.07,.04,.13,.08,.2,.12l-.05-.05s.01,0,.03,.02h0s.02,0,.05,.02h0Z"/><path class="d" d="M27.94,1.14c.15,.07,.16,.1,.18,.15l.05,.02s.31,.12,.33,.14h-.04c.06,.01,.17,.06,.21,.1,0,.01-.01,.01-.02,.01,.11,.04,.2,.12,.3,.18,.07,0,.23,.07,.27,.12,0,0-.02,0-.02,0,.08,.03,.14,.11,.21,.15v-.02c.13,.03,.19,.08,.26,.14-.04-.01-.09-.03-.13-.04l.04,.02c.04,.08,.04,.08,.06,.09-.02,0-.03,0-.04,0t.04,.06s-.16,0-.23-.14q-.11-.02-.15-.06h0q.08,0,.09,0s0-.02-.05-.05c0,.03-.03,.02-.03,.02q-.07-.05-.17-.09s.06,.07,.09,.1c-.19-.1-.23-.13-.24-.16,.01-.01,.01-.02,.06-.02l-.1-.05v.02s-.32-.08-.36-.11c0-.01,.01-.01,.1,0,.08,0,.09,0,.11,0-.06-.03-.13-.01-.19-.04-.05-.05-.09-.09-.14-.14h-.03s-.05-.02-.14-.07c.05,.09,.16,.1,.22,.16,0,.01,0,.02,.02,.08l-.04-.02q-.12-.07-.15-.08s.04,.07,.06,.11h-.04q-.1-.08-.13-.09l.04,.04c-.05-.02-.06-.02-.08-.03t.01,.03s-.01,0-.06-.02c-.01-.05-.02-.08-.04-.13-.05,0-.05,0-.1-.04,.02-.01,.03-.01,.05-.01,0-.01,0-.01-.12-.08h-.04l.02-.02s-.01,0-.07-.02c0-.01,.03-.05,.02-.07-.01-.04-.06-.04-.07-.07,0-.02,0-.03-.01-.06q.06,.02,.07,.02s-.04-.02-.06-.04h0c.08-.03,.11-.01,.16,.01h0Z"/><path class="d" d="M28.88,1.86c.08,.06,.16,.13,.24,.18q-.01,.05-.05,.04s-.05-.01-.06-.02c-.03,0-.08-.01-.11-.03-.04-.02-.06-.06-.1-.07q-.1,0-.11,0s-.01,.02-.11-.03c.01-.03,0-.04,0-.04-.01,.02-.05,0-.05,0q-.12-.09-.13-.09c-.06,0-.14-.08-.14-.08,.02,0,.02,0,.12,.02,.13,.03,.15,.03,.22,.04-.02-.01-.02-.01-.02-.02,0,0,0,0,.03,0h.02s.09,.05,.14,.06c.03,0,.05,0,.08,0,.02,0,.03,.02,.04,.02h0Z"/><path class="d" d="M30.01,2.29c.11,.08,.1,.1,.08,.1,0,0-.02,0-.03,0,.06,.09,.06,.18-.05,.16-.08-.01-.17-.07-.28-.13,0,0-.11-.04-.13-.03,0,.01,.01,.02,.02,.03-.02,.01-.15-.02-.15-.02,0,0-.09-.05-.09-.06,0,0,.02,0,.03,0,.11,0,.15,0,.21-.03l.03,.02s.04,.03,.17,.08c.03-.03,.02-.06,0-.11-.02-.03-.03-.06-.02-.07,.06-.03,.22,.07,.24,.08h0Z"/><path class="d" d="M32.37,3.85c.07,.06,.08,.08,.08,.08,0,0,0,0-.05-.02-.05-.03-.06-.03-.07-.03,.15,.17,.16,.18,.16,.19-.04,0-.08,0-.11,0,0-.02-.02-.04-.06-.08-.1-.1-.22-.19-.32-.29,.03,.02,.06,.04,.1,.06l-.05-.06c.06,.03,.07,.04,.13,.06,.06,.02,.1,.04,.19,.11v-.02h.01Z"/><path class="d" d="M30.23,2.66s.17,.13,.2,.16h.01s0,.02,.01,.05t.04,.04s.11,.07,.11,.09c-.02,.01-.24-.12-.37-.19,0,0-.1-.06-.1-.09,.02-.03,.05-.05,.06-.07l.03,.02h0Z"/><path class="d" d="M37.21,10.62c.02,.07,.03,.09,.05,.17-.09-.3-.13-.27-.13-.27t.04,.24v-.03c-.05-.16-.07-.23-.07-.3,0-.03,0-.03,0-.04,.04,0,.1,.2,.1,.22h0Z"/><path class="d" d="M31.3,3.51s.07,.05,.03,.06c-.03,0-.06,0-.08,0,0,0-.02,0-.02,.02-.09-.1-.14-.15-.2-.21,.05,.03,.07,.04,.11,.05,.04,0,.07,.01,.16,.08h0Z"/><path class="d" d="M29.14,2.19s.03,.04,0,.04c-.05,0-.19-.07-.24-.1q.13,0,.14,0s.1,.03,.11,.05h0Z"/><path class="d" d="M29.93,2.57s.07,.04,.06,.05c0,0-.1,0-.1,0,0,0-.14-.08-.13-.11,.02-.03,.16,.05,.17,.06h0Z"/><path class="d" d="M31.69,3.21s0,0,0,.01h0s0,.02-.03,0c-.06-.04-.18-.13-.2-.15,0,0,.09,.04,.22,.13h0Z"/><path class="d" d="M30.76,2.3c.05,.03,.1,.07,.11,.08l-.05-.03h0s-.09-.05-.12-.07c0,0,.03,0,.04,.02h0Z"/><path class="d" d="M34.42,5.49s-.02-.01-.03-.02c-.01-.02-.03-.03-.04-.05,0,0,0,0,.06,.07h0Z"/><path class="d" d="M29.27,2.21s.02,.03,.02,.03c0,0,0,0-.02,0-.02,0-.02,0-.02,.01l-.04-.02s0-.04,0-.06l.04,.02h0Z"/><path class="d" d="M28.41,1.68c.1,.05,.11,.06,.1,.06,0,0-.06,0-.08-.01-.01-.02-.02-.04-.03-.06h.01Z"/><path class="d" d="M37.35,11.1s0,.01,0,.02c0-.03-.02-.07-.02-.1l.03,.08h0Z"/><path class="d" d="M32.58,4.06s.06,.07,.08,.1c0,0-.02,0-.03-.01-.1-.1-.1-.1-.1-.11v-.02s.04,.03,.05,.04h0Z"/><path class="d" d="M33.65,4.93s.05,.07,.08,.11l-.07-.05s-.05-.06-.05-.08c0-.01,.03,.01,.03,.01h0Z"/><path class="d" d="M34.79,5.96v.02s0-.02,0-.02l-.04-.05s.01,.01,.01,.02l.03,.04h0Z"/><path class="d" d="M32.66,4.05s.06,.06,.1,.09h-.01s-.08-.07-.13-.11c0,0,.01,0,.02,0,0,0,.02,.01,.02,.02h0Z"/><path class="d" d="M29.92,3.28c.05,.13,.13,.24,.19,.32,.05,.07,.07,.1,.07,.12,0,.05-.3-.06-.3-.06-.01,0-.02-.02-.03-.03q-.23-.24-.42-.35s.03-.02,.05-.04c.11-.07,.23-.07,.43-.01,0,.01,.01,.03,.02,.05h0Z"/><path class="d" d="M29.64,2.72c.06,.04,.11,.09,.11,.1,0,.03-.02,.02-.04,.03-.02,.01,0,.04,.01,.07,.03,.05,.05,.1,.02,.11-.02,0-.06,0-.09-.02q-.03-.09-.06-.11l-.08,.03s.07,.08,0,.07q-.06,0-.12-.06c-.16-.15-.14-.16-.13-.17,.02-.02,.1,0,.16,.02,.08,.02,.16,.04,.15,0,0-.02-.17-.09-.17-.09-.01,0-.03,0-.04,0-.06-.07-.08-.09-.07-.1,.02,0,.02,0,.1,.05,.08,.04,.13,.06,.15,.05,0,0,0-.02,0-.02h0s.06,0,.11,.04h0Z"/><path class="d" d="M29.05,2.7c.1,.06,.14,.1,.14,.12-.02,0-.05,0-.13-.04,.1,.07,.12,.09,.13,.1,0,0,0,0-.03,0,.03,.03,.11,.08,.01,.09q-.05,0-.12-.08c-.04-.05-.14-.21-.12-.25,.03-.02,.07,.01,.12,.04h0Z"/><path class="d" d="M28.96,2.46h.01v.02h.03v.02h.03l.02,.02h.02s-.02,.06-.02,.08c-.09-.05-.09-.05-.1-.07,0,0,0-.02,0-.03,0-.02,0-.03,0-.05h.02Z"/><path class="d" d="M28.87,2.4c-.12,0-.14-.03-.13-.04,.02-.01,.05,0,.13,.04h0Z"/><path class="d" d="M30.14,3s.07,.06,.1,.09l-.07-.02h-.04s-.03-.02-.04-.03c0,0-.04-.04-.03-.06,0,0,.06,0,.08,.02h0Z"/><path class="d" d="M30.03,4.28s0,.08,.01,.13c-.06-.07-.08-.1-.04-.12,0,0,.02,0,.02,0h0Z"/><path class="d" d="M29.24,2.46s.02,.02,0,.02c-.02,0-.11-.04-.11-.05,0,0-.02-.01-.03-.02q.14,.05,.15,.05h0Z"/></g><g><path class="g" d="M19.35,37.93c-.33-.23-.64-.57-1.04-.66-.04,0-.08-.03-.11-.05-2.22-1.96-6-1.96-8.68-3.44-.05-.03-.09-.08-.11-.14-.07-.19-.32-.34-.51-.42-.04-.01-.07-.03-.09-.06-1.26-1.32-2.68-2.83-4.25-3.91-1.42-.95-2.81,.1-1.47,1.41,.02,.02,.04,.05,.05,.08,.36,.9,1.18,1.9,1.8,2.75,0,.01,.02,.03,.02,.04,.57,1.29,1.86,1.99,2.87,2.87-2.41-.86-3.55-3.16-4.99-5.08-.63-.79-1.52-2.37-.22-2.82,.13-.04,.19-.18,.14-.31-.59-1.72-.5-3.54-.59-5.33v-.03c-.13-.82-.73-1.78-1.64-1.74-.11,0-.2,.09-.22,.2-.23,1.26-.05,2.57-.17,3.84-1,7.07,3.1,15.52,10.39,17.2h0c2,.54,4.02,1.04,5.95,1.72,.06,.02,.18,.07,.23,.11,.06,.05,.15,.1,.2,.12,.05,.03,.19,.08,.24,.11,1.65,1.12,3.09,2.63,4.07,4.42,.1,.18,.36,.17,.44-.02,1.47-3.72,1.16-8.36-2.31-10.85Z"/><path class="g" d="M45.92,25.94c-.19-1.57-.04-3.2-.24-4.79-3.15-.09-1.29,5.38-2.54,7.32,2.69,.84-1.38,4.18-1.89,5.57-.79,1.12-1.92,1.86-3.15,2.4,.71-.61,1.5-1.11,2.17-1.77h0c.56-.5,.99-1.31,1.32-2.03,.21,0,.29-.26,.4-.5,.25-.39,.44-.73,.73-1.03l.09-.11c.07-.11,.09-.11,.16-.22l.09-.13c.18-.44,.75-1.51-.01-1.65-.35-.26-1.17-.08-1.38,.26-2.43,1.07-3.98,4.12-6.5,5.26-1.58,.36-3.6,.59-4.87,1.48-6.07,1.76-8.28,7.53-5.78,13.25,1.26-2.23,2.94-4.38,5.39-5.29l.15-.07,.23-.13c.11-.04,.18-.09,.29-.13l.22-.09c8.16-1.47,12.65-4.55,14.89-12.74,.62-1.39,.24-3.29,.25-4.85Z"/></g><g><path class="g" d="M72.71,18.55c.18,.61,.37,1.3,.59,2.06,.22,.77,.45,1.56,.69,2.37,.24,.82,.49,1.64,.75,2.45,.25,.82,.5,1.58,.73,2.27,.19-.76,.39-1.58,.59-2.47,.2-.89,.39-1.81,.57-2.76s.35-1.9,.53-2.84c.17-.94,.33-1.85,.48-2.73h3.61c-.52,2.59-1.12,5.21-1.81,7.87-.68,2.66-1.42,5.19-2.21,7.58h-3.18c-.52-1.43-1.02-2.92-1.51-4.49-.49-1.57-.97-3.14-1.45-4.72-.48,1.58-.95,3.15-1.43,4.72-.48,1.57-.97,3.07-1.5,4.49h-3.18c-.79-2.39-1.53-4.92-2.21-7.58s-1.28-5.28-1.8-7.87h3.77c.15,.88,.31,1.79,.49,2.73,.18,.94,.37,1.89,.56,2.84s.39,1.87,.59,2.76c.2,.89,.41,1.72,.62,2.47,.27-.73,.53-1.5,.78-2.32,.25-.82,.5-1.63,.74-2.45s.46-1.61,.66-2.36c.2-.76,.38-1.43,.55-2.03h2.96Z"/><path class="g" d="M93.83,32.35c-1-1.77-2.07-3.51-3.23-5.24-1.16-1.72-2.39-3.35-3.7-4.88v10.12h-3.43v-15.45h2.83c.49,.49,1.03,1.09,1.63,1.81,.59,.71,1.2,1.48,1.82,2.29,.62,.81,1.23,1.65,1.84,2.52,.61,.87,1.18,1.71,1.72,2.51v-9.12h3.46v15.45h-2.92Z"/><path class="g" d="M104.94,32.35c-.62-1.3-1.22-2.64-1.82-4.04s-1.17-2.78-1.7-4.14c-.54-1.37-1.03-2.67-1.48-3.92-.45-1.25-.84-2.36-1.17-3.34h3.83c.29,.89,.61,1.86,.96,2.89,.35,1.03,.71,2.06,1.08,3.08s.72,2.01,1.06,2.94,.66,1.75,.97,2.43c.29-.68,.61-1.49,.95-2.42,.34-.94,.7-1.92,1.07-2.94,.37-1.02,.73-2.05,1.08-3.08s.68-2,.97-2.9h3.7c-.35,.99-.74,2.1-1.19,3.35s-.94,2.55-1.48,3.92c-.54,1.37-1.1,2.75-1.69,4.15-.59,1.4-1.2,2.74-1.81,4.03h-3.32Z"/><path class="g" d="M130.57,24.61c0,1.32-.2,2.49-.59,3.49-.39,1-.93,1.84-1.62,2.52-.68,.68-1.5,1.19-2.44,1.53s-1.96,.51-3.04,.51-2.05-.17-2.99-.51-1.75-.85-2.45-1.53c-.7-.68-1.25-1.52-1.65-2.52s-.6-2.17-.6-3.49,.21-2.49,.62-3.49c.42-1,.98-1.85,1.68-2.53,.71-.68,1.52-1.2,2.45-1.54s1.91-.51,2.93-.51,2.05,.17,2.99,.51c.94,.34,1.75,.85,2.45,1.54,.7,.68,1.25,1.53,1.65,2.53,.4,1,.6,2.17,.6,3.49Zm-11.79,0c0,.76,.09,1.44,.28,2.05,.19,.61,.45,1.13,.8,1.57,.35,.44,.78,.78,1.28,1.01,.5,.24,1.08,.36,1.74,.36s1.22-.12,1.73-.36c.51-.24,.94-.58,1.29-1.01s.62-.96,.8-1.57c.19-.61,.28-1.29,.28-2.05s-.09-1.45-.28-2.06c-.19-.62-.45-1.14-.8-1.58s-.78-.78-1.29-1.01c-.51-.24-1.09-.36-1.73-.36s-1.23,.12-1.74,.37c-.51,.25-.93,.59-1.28,1.03-.35,.44-.62,.97-.8,1.58-.19,.62-.28,1.3-.28,2.04Z"/><path class="g" d="M133.47,32.35v-15.45h10.43v2.92h-6.96v3.03h6.18v2.85h-6.18v3.72h7.47v2.92h-10.95Z"/><path class="g" d="M154.03,32.66c-2.51,0-4.43-.7-5.74-2.1-1.32-1.4-1.97-3.38-1.97-5.95,0-1.28,.2-2.42,.6-3.42,.4-1,.95-1.85,1.65-2.54,.7-.69,1.53-1.21,2.5-1.57,.97-.36,2.01-.53,3.14-.53,.65,0,1.25,.05,1.78,.14,.54,.1,1,.21,1.4,.33,.4,.13,.74,.26,1,.39s.46,.24,.58,.31l-1,2.81c-.48-.25-1.03-.47-1.66-.65-.63-.18-1.35-.27-2.15-.27-.54,0-1.06,.09-1.57,.27-.51,.18-.97,.46-1.36,.86s-.71,.9-.95,1.53-.36,1.38-.36,2.27c0,.71,.08,1.38,.23,2,.16,.62,.41,1.15,.76,1.59,.35,.45,.81,.8,1.37,1.06,.56,.26,1.25,.39,2.05,.39,.51,0,.96-.03,1.36-.09,.4-.06,.76-.13,1.07-.21,.31-.08,.59-.17,.83-.28,.24-.1,.45-.2,.65-.29l.96,2.79c-.49,.3-1.18,.56-2.07,.8-.89,.24-1.93,.36-3.1,.36Z"/></g><path class="f" d="M5.07,23.62c4.41-3.78,20.34-15.75,44.56-15.46,.47,0,.59,.66,.16,.83-3.88,1.53-11.37,5.76-12.86,15.88-.04,.27-.31,.44-.57,.35-2.49-.91-14.19-4.59-30.91-.85-.44,.1-.72-.45-.38-.74Z"/><polygon class="f" points="14.97 10.28 18.31 10.28 18.31 5.58 19.33 5.58 19.33 10.28 20.95 10.28 20.95 12.14 14.97 14.94 14.97 10.28"/></g></g></g></svg>